<?xml version="1.0" encoding="utf-8"?>
<!-- Generator: Adobe Illustrator 22.1.0, SVG Export Plug-In . SVG Version: 6.00 Build 0)  -->
<svg version="1.1" id="Слой_1" xmlns="http://www.w3.org/2000/svg" xmlns:xlink="http://www.w3.org/1999/xlink" x="0px" y="0px"
	 viewBox="0 0 1200 217" style="enable-background:new 0 0 1200 217;" xml:space="preserve" fill="#000000">
<g>
	<polygon points="396.3,69.3 389.7,54.7 320.7,85.9 320.2,100.2 374.9,129.2 320.7,153.7 327.3,168.3 396.3,137.1 396.8,122.7 
		342.1,93.7 	"/>
	<polygon points="302.2,58.9 274.4,140.5 248.3,58.9 233.3,58.9 231.7,59.4 266.6,168.4 281.8,168.5 318.8,59.5 316.9,58.9 	"/>
	<polygon points="522,153 466,153 466,58.9 450,58.9 450,168.9 538,168.9 538,58.9 522,58.9 	"/>
	<polygon points="624,134.3 568.4,58.9 555,58.9 555,168.9 571,168.9 571,89.4 629.6,168.9 640,168.9 640,58.9 624,58.9 	"/>
	<path d="M66,52.7l-13,6.2v106.8l13.1,6.2l65.4-54.4l-0.1-12.4L66,52.7z M69,148.7V75.6l44.8,35.9L69,148.7z"/>
	<rect x="149" y="152.9" width="69.3" height="16"/>
	<rect x="665" y="58.9" width="16" height="110"/>
	<rect x="149" y="58.9" width="69.3" height="16"/>
	<rect x="149" y="105.9" width="69.3" height="16"/>
	<polygon points="1055.3,70.3 1048.7,55.7 979.7,86.9 979.2,101.2 1033.8,130.2 979.7,154.7 986.3,169.3 1055.3,138.1 1055.8,123.7 
		1001.2,94.7 	"/>
	<rect x="1074" y="105.9" width="69.3" height="16"/>
	<path d="M960.4,100.1l0.6-14.2l-60-33.9L889,59v109.9h16v-32.2l47.3,34.8l9.5-12.9l-49.1-36.1L960.4,100.1z M905,72.7l34.5,19.5
		L905,108.3V72.7z"/>
	<rect x="1074" y="152.9" width="69.3" height="16"/>
	<rect x="1074" y="58.9" width="69.3" height="16"/>
	<rect x="799.3" y="58.9" width="69.3" height="16"/>
	<rect x="799.3" y="105.9" width="69.3" height="16"/>
	<rect x="799.3" y="152.9" width="69.3" height="16"/>
	<polygon points="768.9,58.9 741.1,140.5 715,58.9 700.1,58.9 698.4,59.4 733.3,168.4 748.5,168.5 785.6,59.5 783.6,58.9 	"/>
</g>
</svg>
